# xmcd
#
# Track frame offsets: 
#        150
#        13419
#        27949
#        41362
#        58815
#        73727
#        91087
#        105340
#        118978
#        132552
#        148777
#        162880
#        181588
#
# Disc length: 2647 seconds
#
# Revision: 0
# Processed by: cddbd v1.5.2PL0 Copyright (c) Steve Scherf et al.
# Submitted via: ExactAudioCopy v0.95b4
#
DISCID=b30a550d
DTITLE=Nyanse - Når En Storm Endrer Kusen
DYEAR=2008
DGENRE=Dansband
TTITLE0=Angelina
TTITLE1=Jeg Håper Du Kan Tro Meg
TTITLE2=Den Sommer'n Jeg Traff Deg
TTITLE3=De Ord Som Mor Min Sa
TTITLE4=Dine Blikk
TTITLE5=Når En Storm Endrer Kursen
TTITLE6=Det Du Ser Er Den Du Får
TTITLE7=Tennesee River Run
TTITLE8=Ingen Kan Bli Som Deg
TTITLE9=Lov At Du Aldri Glemmer
TTITLE10=Hans Store Drøm I livet
TTITLE11=Fra Lykke Og Berømmelse
TTITLE12=Et Slitsomt Liv Er Over
EXTD=
EXTT0=
EXTT1=
EXTT2=
EXTT3=
EXTT4=
EXTT5=
EXTT6=
EXTT7=
EXTT8=
EXTT9=
EXTT10=
EXTT11=
EXTT12=
PLAYORDER=
